<?xml version="1.0" encoding="UTF-8"?>
<svg xmlns="http://www.w3.org/2000/svg" width="708" height="472" viewBox="0 0 708 472">
  <g fill="none" fill-rule="evenodd" transform="translate(123 22)">
    <g transform="translate(81)">
      <path fill="#E6E6E6" stroke="#50525D" stroke-width="6" d="M0.224706782,192.118123 C0.224706782,196.943334 4.1697815,200.892331 8.99265543,200.892331 L291.515445,200.892331 C296.33631,200.892331 300.283394,196.943334 300.283394,192.118123 L300.283394,9.52777122 C300.283394,4.70255952 296.33631,0.755572529 291.515445,0.755572529 L8.99265543,0.755572529 C4.1697815,0.755572529 0.224706782,4.70255952 0.224706782,9.52777122 L0.224706782,192.118123 Z"></path>
      <g transform="translate(43 19)">
        <path stroke="#A7A4A4" stroke-linecap="round" stroke-linejoin="round" stroke-width="3" d="M48.20652,45.3625063 C37.063748,47.5880479 26.1396659,53.8549786 21.1445104,64.0660828 C14.9413536,76.7561834 19.1172896,91.8315369 23.3834786,105.299362 C26.1396659,114.007097 28.9652785,122.860656 34.130526,130.401804 C39.2957736,137.939481 47.2345648,144.105724 56.3362309,144.911225 C65.6114604,145.727141 74.6818851,140.828172 80.9614099,133.950172 C87.2374634,127.072172 91.1461118,118.395685 94.6034952,109.750445 C99.0675466,98.5776014 103.01785,86.7138329 101.764722,74.7493768 C98.8696843,47.1471059 71.2557431,40.7621278 48.20652,45.3625063 Z"></path>
        <path stroke="#A7A4A4" stroke-linecap="round" stroke-linejoin="round" stroke-width="3" d="M62 44C62.3341523 77.0011557 62.6658477 110.002311 63 143 62.972973 141.928624 62.9459459 140.850313 62.9189189 139.77547M21 99C46.861074 95.1407523 73.1111408 95.0035162 99 98.5966088"></path>
        <path stroke="#5EB3E4" stroke-linecap="round" stroke-linejoin="round" stroke-width="3" d="M0,63.1311413 C12.9057566,62.0861553 26.1616162,67.3391389 35,77"></path>
        <path stroke="#EC5B33" stroke-linecap="round" stroke-linejoin="round" stroke-width="3" d="M110,63 C99.538623,65.5976925 90.1036066,72.1276716 84,81"></path>
        <g fill="#4EBABC" transform="translate(123)">
          <path d="M74.3834715 5.13621249C61.3740444 4.99766694 48.4061813 3.79232069 35.4036821 3.48059321 24.5763475 3.22428395 12.5575214 2.26831968 2.18738723 5.93977664-.424196308 6.8680318.69802261 11.0590346 3.34424252 10.1307794 14.4140317 6.20301318 28.0261318 7.54690499 39.6223939 7.9348325 51.218656 8.32968734 62.780282 9.35492438 74.3834715 9.47961534 77.175164 9.50732448 77.1820914 5.17084887 74.3834715 5.13621249M61.3608827 16.7110002C45.4004357 14.7782898 30.548353 12.9979795 14.3385244 13.1018887 11.5537589 13.1088159 11.5468316 17.4522188 14.3385244 17.431437 30.5067894 17.3413824 45.4073631 19.1216927 61.3608827 21.054403 64.1317938 21.3938396 64.1040846 17.0504367 61.3608827 16.7110002"></path>
        </g>
        <path stroke="#5EB3E4" stroke-linecap="round" stroke-linejoin="round" stroke-width="3" d="M49,57 C48.3963558,44.1558612 42.5039657,31.6384141 33,23"></path>
        <path stroke="#EC5B33" stroke-linecap="round" stroke-linejoin="round" stroke-width="3" d="M73.6824555,58 C71.2013015,44.7687145 75.6010806,30.3784842 85,21"></path>
        <path stroke="#5EB3E4" stroke-linecap="round" stroke-linejoin="round" stroke-width="3" d="M31.0792403,32 C31.0504257,28.3333333 31.0252128,24.6666667 31,21 L42,21.9166667"></path>
        <polyline stroke="#EC5B33" stroke-linecap="round" stroke-linejoin="round" stroke-width="3" points="76 21.379 86.694 19 88 30"></polyline>
        <path stroke="#EC5B33" stroke-linecap="round" stroke-linejoin="round" stroke-width="3" d="M93,82.8156607 C89.3871173,83.2068515 85.770727,83.6052202 82.161352,84 L82,73"></path>
        <path stroke="#A7A4A4" stroke-linecap="round" stroke-linejoin="round" stroke-width="3" d="M143 64L207 64M143 86L207 86M143 108L207 108"></path>
        <path stroke="#5EB3E4" stroke-linecap="round" stroke-linejoin="round" stroke-width="3" d="M36.7661106,69 C36.8416748,72.6654862 36.9244357,76.3345138 37,80 L26,79.2385705"></path>
      </g>
      <g fill-rule="nonzero" transform="translate(145.903 123.663)">
        <polygon fill="#FFD200" points=".305 42.352 40.721 42.352 40.721 1.064 .305 1.064"></polygon>
        <path fill="#4A4A4A" fill-opacity=".3" d="M28.0139609,17.4105488 C22.1984975,18.6722371 15.9485454,15.5973943 10.0369931,15.618283 C8.35334956,15.6224608 8.35334956,18.2419262 10.0369931,18.2335706 C16.2368119,18.2168594 22.5201862,21.274991 28.7116494,19.9339252 C30.357693,19.5788142 29.6641823,17.0554378 28.0139609,17.4105488 M28.8014716,26.5247838 C22.7771194,26.3284284 16.9867226,24.6489625 10.9999703,26.1362507 C9.36646012,26.5414947 10.0599708,29.0648711 11.6934811,28.6638049 C17.4003224,27.243361 23.0612081,28.956249 28.8014716,29.1442489 C30.4809374,29.2027379 30.4809374,26.5832725 28.8014716,26.5247838"></path>
      </g>
      <path fill="#FFF" fill-opacity=".203" d="M271.230532,2.84564502 L12.0533345,2.84564502 C7.1524615,2.84564502 3.14136807,6.87079937 3.14136807,11.7905156 L3.14136807,132.557124"></path>
    </g>
    <g transform="translate(0 167)">
      <rect width="195.334" height="24.31" x=".21" y="236.945" fill="#181E30" fill-opacity=".05"></rect>
      <g transform="translate(111.032 62.787)">
        <path fill="#2F3444" d="M2.97477553,44.0048767 L64.5923202,44.0048767 C65.9569541,44.0048767 67.0763961,42.8824932 67.0763961,41.5142734 L67.0763961,2.57340825 C67.0763961,1.20518846 65.9569541,0.0848199718 64.5923202,0.0848199718 L2.97477553,0.0848199718 C1.60813179,0.0848199718 0.492709326,1.20518846 0.492709326,2.57340825 L0.492709326,41.5142734 C0.492709326,42.8824932 1.60813179,44.0048767 2.97477553,44.0048767"></path>
        <g transform="translate(3.871 3.876)">
          <path fill="#E6E6E6" d="M2.78188823,36.0301198 L57.0436739,36.0301198 C58.1952723,36.0301198 59.1398643,35.0830458 59.1398643,33.9284214 L59.1398643,2.48354687 C59.1398643,1.32690746 58.1952723,0.381848427 57.0436739,0.381848427 L2.78188823,0.381848427 C1.63028991,0.381848427 0.685697911,1.32690746 0.685697911,2.48354687 L0.685697911,33.9284214 C0.685697911,35.0830458 1.63028991,36.0301198 2.78188823,36.0301198"></path>
          <g stroke-linecap="round" stroke-linejoin="round" stroke-width="1.2" transform="translate(8.097 5.625)">
            <path stroke="#A7A4A4" d="M9.41073947,5.0822595 C7.27190113,5.50995591 5.17503999,6.71431164 4.21622741,8.67664415 C3.02554077,11.1153811 3.82710542,14.0125072 4.64599399,16.6007043 C5.17503999,18.2741249 5.71741208,19.9755693 6.70887359,21.4247996 C7.7003351,22.8733626 9.22417413,24.0583686 10.9712253,24.2131666 C12.7515916,24.3699664 14.492646,23.4285005 15.6979914,22.1067118 C16.9026704,20.784923 17.6529296,19.1175075 18.3165692,17.4560971 C19.1734371,15.3089411 19.9316919,13.0290056 19.6911559,10.7297204 C19.1354577,5.42521731 13.8350032,4.19817566 9.41073947,5.0822595 Z"></path>
            <path stroke="#A7A4A4" d="M12.0251862 4.83171347C12.1489463 11.182438 12.2717964 17.5331626 12.3955565 23.8832199 12.3855465 23.6770449 12.3755365 23.4695354 12.3655265 23.2626931M4.22082491 15.2001821C9.1821303 14.5809898 14.2180618 14.5589711 19.1846977 15.1354605"></path>
            <path stroke="#5EB3E4" d="M0.0967981087,8.51090345 C2.60210408,8.31206799 5.17537314,9.31158316 6.89110795,11.1498103"></path>
            <path stroke="#EC5B33" d="M21.4751203,8.50116185 C19.4308973,9.0102607 17.5872319,10.2900138 16.3945464,12.0288232"></path>
            <path stroke="#5EB3E4" d="M9.55452804,7.3608605 C9.4372584,4.86874491 8.29254679,2.44001646 6.44621625,0.763926943"></path>
            <path stroke="#EC5B33" d="M14.3755096,7.58765303 C13.8817778,5.0281469 14.7573023,2.24445045 16.6276198,0.430243674"></path>
            <path stroke="#5EB3E4" d="M6.14104866,2.52375422 C6.13571822,1.83250074 6.13105409,1.14124725 6.12638995,0.449993774 L8.16128475,0.622807144"></path>
            <polyline stroke="#EC5B33" points="14.813 .457 16.837 .018 17.084 2.048"></polyline>
            <path stroke="#EC5B33" d="M18.0844286,12.2022371 C17.3981347,12.2749655 16.7111744,12.3490284 16.0255468,12.422424 L15.9948968,10.3773546"></path>
            <path stroke="#A7A4A4" d="M27.7364634 8.63189827L39.9283154 8.63189827M27.7364634 12.8990465L39.9283154 12.8990465M27.7364634 17.1661947L39.9283154 17.1661947"></path>
            <path stroke="#5EB3E4" d="M7.16849063,9.69684355 C7.18248303,10.3874298 7.19780804,11.0786833 7.21180044,11.7692695 L5.17490673,11.6258144"></path>
          </g>
          <path fill="#4EBABC" d="M49.5166023 3.82697652C46.2642456 3.79234014 43.0222798 3.49100357 39.771655 3.4130717 37.0648213 3.34899439 34.0601148 3.11000332 31.4675813 4.02786756 30.8146854 4.25993135 31.0952401 5.30768205 31.7567951 5.07561826 34.5242424 4.0936767 37.9272674 4.42964965 40.826333 4.52663153 43.7253985 4.62534524 46.615805 4.8816545 49.5166023 4.91282724 50.2145255 4.91975452 50.2162573 3.83563562 49.5166023 3.82697652M46.2609551 6.72067344C42.2708434 6.23749584 38.5578227 5.79241828 34.5053656 5.81839557 33.8091742 5.82012739 33.8074424 6.9059781 34.5053656 6.90078265 38.5474318 6.87826899 42.2725752 7.32334657 46.2609551 7.80652416 46.9536829 7.8913833 46.9467556 6.80553258 46.2609551 6.72067344"></path>
          <g fill-rule="nonzero" transform="translate(28 22)">
            <polygon fill="#FFD200" points=".067 9.297 8.939 9.297 8.939 .234 .067 .234"></polygon>
            <path fill="#4A4A4A" fill-opacity=".3" d="M6.14940606,3.82182778 C4.87284091,4.09878376 3.5009002,3.42381826 2.20324238,3.42840359 C1.8336621,3.42932067 1.8336621,4.00432527 2.20324238,4.00249111 C3.56417822,3.99882278 4.9434555,4.67011997 6.30255719,4.37573967 C6.66388383,4.29778848 6.51164976,3.74387659 6.14940606,3.82182778 M6.32227426,5.82251352 C4.99985547,5.7794111 3.72879276,5.41074787 2.41462763,5.73722576 C2.05605222,5.82618177 2.20828628,6.38009367 2.5668617,6.29205474 C3.81958296,5.98024998 5.06221642,6.35624979 6.32227426,6.39751805 C6.69093747,6.41035711 6.69093747,5.8353525 6.32227426,5.82251352"></path>
          </g>
        </g>
      </g>
      <path fill="#7F4B24" d="M178.315363,113.947168 L17.1334004,113.947168 L17.1334004,245.531965 L8.88530354,245.531965 L8.88530354,113.947168 L0.129032258,113.947168 L0.129032258,106.195266 L195.462618,106.195266 L195.462618,113.947168 L186.56346,113.947168 L186.56346,245.531965 L178.315363,245.531965 L178.315363,113.947168 Z"></path>
      <g transform="translate(10.968 .775)">
        <polygon fill="#D89D5E" points="76.506 174.086 74.253 220.474 77.472 222.026 91.808 173.703"></polygon>
        <polygon fill="#D89D5E" points="50.875 172.936 48.355 220.346 44.619 221.507 35.189 173.317"></polygon>
        <polygon fill="#525062" points="38.819 194.138 50.109 192.306 48.938 218.181 44.333 220.493"></polygon>
        <polygon fill="#525062" points="74.975 194.99 85.395 197.182 77.77 221.381 73.887 219.398"></polygon>
        <path fill="#0C101F" d="M54.6043366,226.488766 C51.8429123,221.781606 50.5466106,218.237131 48.9387944,218.18071 C46.5230506,218.092047 41.8382763,221.14485 42.8652688,223.615303 C43.8922614,226.085756 47.2505874,230.706268 47.8253817,232.320324 C48.4021857,233.93035 49.2282013,241.843456 50.3797996,243.223766 C52.9402469,246.288659 58.3404994,251.612425 62.1490139,248.521336 C68.2587153,243.56028 65.2581284,237.144357 62.5630266,234.180216 C58.3987827,229.604035 54.6043366,226.488766 54.6043366,226.488766"></path>
        <path fill="#27293C" d="M67.1672092,227.449139 C69.7155978,222.621076 70.8491082,219.022195 72.4569243,218.893232 C74.8666388,218.695757 79.6820482,221.532949 78.765593,224.049748 C77.8491378,226.564532 74.7038474,231.330128 74.2014049,232.966349 C73.6969525,234.604586 72.8528491,242.326262 72.1373709,243.976589 C70.5757794,247.563381 66.8416264,252.343082 60.6193778,249.798072 C55.4321609,247.674208 57.0017915,238.574237 59.5622387,235.491209 C63.5174665,230.731658 67.1672092,227.449139 67.1672092,227.449139"></path>
        <path fill="#5EB3E4" d="M70.8354417,64.3911931 C70.8354417,64.3911931 84.9460383,65.3221468 89.9704638,69.1991054 C94.9968991,73.0740489 114.324859,94.7761507 114.710735,96.71463 C115.096611,98.6531093 117.417895,105.629217 112.003575,106.791901 C106.593273,107.952571 3.38554395,109.89105 1.45415479,106.791901 C-0.479244147,103.690737 -0.479244147,97.4904247 2.99966807,94.3892609 C6.47858029,91.2901121 33.1502407,67.2606261 36.6271431,65.3221468 C40.1080651,63.3836675 51.7024294,63.7705574 54.7974755,64.1594622 C57.8905118,64.5463521 70.8354417,64.3911931 70.8354417,64.3911931"></path>
        <path fill="#D89D5E" d="M83.0100267,13.0823465 C83.3335997,13.729178 85.8980665,23.9696683 85.8980665,23.9696683 L89.583985,24.6527707 L87.5259803,29.2732832 C87.5259803,29.2732832 89.9537827,39.0462817 84.529413,42.6310578 C79.1030334,46.215834 73.2103872,44.5876726 71.0920894,46.9936438 C66.9901484,51.6584874 69.739514,63.2792879 69.739514,63.2792879 L60.6955481,58.5721282 C60.6955481,58.5721282 63.5132459,44.015398 63.1776143,42.8849543 C62.2611591,39.803941 57.5763848,42.4537333 53.0865581,38.3954201 C48.749474,34.4741304 41.6590048,26.4683319 49.8126425,11.4038088 C57.9662802,-3.66071421 77.444973,1.92299277 83.0100267,13.0823465"></path>
        <path fill="#D89D5E" d="M61.4932259,66.3157686 C56.5331131,65.0241207 53.7616399,64.5082676 53.7616399,64.5082676 C53.7616399,64.5082676 55.7070975,60.8106486 56.0145923,55.5836057 C56.3220872,50.3545477 51.7217232,44.2066264 51.7217232,44.2066264 L62.096157,44.819202 L72.4705908,44.2066264 C72.4705908,44.2066264 67.8722365,50.3545477 68.1777216,55.5836057 C68.4852164,60.8106486 70.6416999,64.7641791 70.6416999,64.7641791 C70.6416999,64.7641791 70.8346378,64.7017125 63.3623122,66.4447318 L62.5885507,66.2512869"></path>
        <path fill="#D18839" d="M69.1397986,42.5345369 C69.1397986,42.5345369 64.501249,49.3756358 60.5922459,50.9655113 C56.6832429,52.5533716 53.3108485,46.550534 53.3108485,46.550534 L69.1397986,42.5345369 Z"></path>
        <path fill="#795638" d="M68.209476,0.993852642 C74.4558418,2.24116936 78.9336098,3.84918024 82.4507076,10.7829715 C85.9657957,17.7187779 78.9657661,30.78034 75.1250952,36.0738796 C69.3128398,44.0937835 63.5608775,46.8544037 58.4460123,47.9042454 C52.7684115,49.0709601 44.6609985,40.6359556 41.9257013,38.1876684 C39.1924138,35.7393811 33.1811911,27.9149372 36.3083936,16.4936268 C38.0548839,10.1079294 49.8462056,-2.67757071 68.209476,0.993852642"></path>
        <path fill="#D89D5E" d="M80.2132305,31.9950129 C80.2132305,31.9950129 74.9235153,23.4290301 72.0756709,25.0612216 C69.2278265,26.6934131 68.4138696,30.3628214 70.4477571,32.8111087 C72.4816445,35.2593959 80.619204,35.2593959 80.619204,35.2593959 L80.2132305,31.9950129 Z"></path>
        <path fill="#FFF" d="M71.1574069,64.5072601 L70.1263948,59.274172 C70.1263948,59.274172 65.873721,62.8287224 54.2793567,59.3406687 L52.9890843,64.1203702 C52.9890843,64.1203702 59.8102443,70.7156329 71.1574069,64.5072601"></path>
        <path fill="#795638" d="M45.9215264,38.5969253 C45.9215264,38.5969253 28.9811733,47.7553331 27.9019267,59.2995617 C26.8226801,70.8458053 32.7233655,85.3380537 29.9961073,90.027078 C27.2708589,94.7181173 24.1235588,95.102992 24.1235588,95.102992 C24.1235588,95.102992 29.0876912,97.8273413 36.0455156,90.7041352 C43.0013303,83.5809291 56.4607613,60.5750891 54.9453946,50.3325837 C53.4300279,40.0900782 45.9215264,38.5969253 45.9215264,38.5969253"></path>
        <path fill="#4EBABC" d="M43.2698356,39.610496 C43.2698356,39.610496 49.7111491,39.7394593 54.6089591,47.6848063 L54.5426366,48.2651411 C54.5426366,48.2651411 47.9083852,43.936811 43.0748879,40.3862908 L43.2698356,39.610496 Z"></path>
      </g>
      <g transform="translate(26.452 79.84)">
        <path stroke="#1A1D30" stroke-width="1.4" d="M11.5351637 80.527603L.445251751 171.432609M81.3294584 80.527603L92.4193704 171.432609"></path>
        <path fill="#D2C1AD" d="M75.2903,3.0601673 C70.9793429,-0.0188309916 48.6528057,0.79927981 45.1276688,0.948393602 C41.6005221,0.79927981 19.2739849,-0.0188309916 14.9650376,3.0601673 C10.282273,6.4071674 0.918753611,87.567386 2.19495769,92.1697631 C3.35660487,96.3570395 38.3467041,97.0784279 44.6433141,97.1751503 L44.6433141,97.1892557 C44.6433141,97.1892557 44.8121348,97.1872406 45.1276688,97.1832105 C45.4432027,97.1872406 45.6120234,97.1892557 45.6120234,97.1892557 L45.6120234,97.1751503 C51.9066237,97.0784279 86.8967229,96.3570395 88.0603798,92.1697631 C89.3365839,87.567386 79.9730645,6.4071674 75.2903,3.0601673"></path>
      </g>
      <g transform="translate(266)">
        <rect width="193.736" height="24.28" x="1.842" y="236.976" fill="#181E30" fill-opacity=".05"></rect>
        <g transform="translate(28.758 63.032)">
          <path fill="#2F3444" d="M2.48717885,43.8659813 L64.1796782,43.8659813 C65.548029,43.8659813 66.666857,42.7449797 66.666857,41.3784445 L66.666857,2.48552427 C66.666857,1.11898906 65.548029,0 64.1796782,0 L2.48717885,0 C1.11882803,0 0,1.11898906 0,2.48552427 L0,41.3784445 C0,42.7449797 1.11882803,43.8659813 2.48717885,43.8659813"></path>
          <path fill="#E6E6E6" d="M5.88508266,39.8567264 L60.2146472,39.8567264 C61.3696963,39.8567264 62.3134559,38.9108184 62.3134559,37.7576157 L62.3134559,6.35145681 C62.3134559,5.19624148 61.3696963,4.25234603 60.2146472,4.25234603 L5.88508266,4.25234603 C4.73204586,4.25234603 3.78627397,5.19624148 3.78627397,6.35145681 L3.78627397,37.7576157 C3.78627397,38.9108184 4.73204586,39.8567264 5.88508266,39.8567264"></path>
          <g stroke-linecap="round" stroke-linejoin="round" stroke-width="1.2" transform="translate(13 9)">
            <path stroke="#A7A4A4" d="M9.41073947,5.0822595 C7.27190113,5.50995591 5.17503999,6.71431164 4.21622741,8.67664415 C3.02554077,11.1153811 3.82710542,14.0125072 4.64599399,16.6007043 C5.17503999,18.2741249 5.71741208,19.9755693 6.70887359,21.4247996 C7.7003351,22.8733626 9.22417413,24.0583686 10.9712253,24.2131666 C12.7515916,24.3699664 14.492646,23.4285005 15.6979914,22.1067118 C16.9026704,20.784923 17.6529296,19.1175075 18.3165692,17.4560971 C19.1734371,15.3089411 19.9316919,13.0290056 19.6911559,10.7297204 C19.1354577,5.42521731 13.8350032,4.19817566 9.41073947,5.0822595 Z"></path>
            <path stroke="#A7A4A4" d="M12.0251862 4.83171347C12.1489463 11.182438 12.2717964 17.5331626 12.3955565 23.8832199 12.3855465 23.6770449 12.3755365 23.4695354 12.3655265 23.2626931M4.22082491 15.2001821C9.1821303 14.5809898 14.2180618 14.5589711 19.1846977 15.1354605"></path>
            <path stroke="#5EB3E4" d="M0.0967981087,8.51090345 C2.60210408,8.31206799 5.17537314,9.31158316 6.89110795,11.1498103"></path>
            <path stroke="#EC5B33" d="M21.4751203,8.50116185 C19.4308973,9.0102607 17.5872319,10.2900138 16.3945464,12.0288232"></path>
            <path stroke="#5EB3E4" d="M9.55452804,7.3608605 C9.4372584,4.86874491 8.29254679,2.44001646 6.44621625,0.763926943"></path>
            <path stroke="#EC5B33" d="M14.3755096,7.58765303 C13.8817778,5.0281469 14.7573023,2.24445045 16.6276198,0.430243674"></path>
            <path stroke="#5EB3E4" d="M6.14104866,2.52375422 C6.13571822,1.83250074 6.13105409,1.14124725 6.12638995,0.449993774 L8.16128475,0.622807144"></path>
            <polyline stroke="#EC5B33" points="14.813 .457 16.837 .018 17.084 2.048"></polyline>
            <path stroke="#EC5B33" d="M18.0844286,12.2022371 C17.3981347,12.2749655 16.7111744,12.3490284 16.0255468,12.422424 L15.9948968,10.3773546"></path>
            <path stroke="#A7A4A4" d="M27.7364634 8.63189827L39.9283154 8.63189827M27.7364634 12.8990465L39.9283154 12.8990465M27.7364634 17.1661947L39.9283154 17.1661947"></path>
            <path stroke="#5EB3E4" d="M7.16849063,9.69684355 C7.18248303,10.3874298 7.19780804,11.0786833 7.21180044,11.7692695 L5.17490673,11.6258144"></path>
          </g>
          <path fill="#4EBABC" d="M53.8378379 8.25179506C50.5854811 8.21715867 47.3435154 7.91582211 44.0928905 7.83789024 41.3860569 7.77381292 38.3813504 7.53482186 35.7888168 8.4526861 35.1359209 8.68474989 35.4164757 9.73250059 36.0780307 9.5004368 38.8454779 8.51849523 42.248503 8.85446818 45.1475685 8.95145006 48.046634 9.05016377 50.9370405 9.30647303 53.8378379 9.33764577 54.535761 9.34457305 54.5374929 8.26045415 53.8378379 8.25179506M50.5821907 11.145492C46.5920789 10.6623144 42.8790583 10.2172368 38.8266011 10.2432141 38.1304097 10.2449459 38.1286779 11.3307966 38.8266011 11.3256012 42.8686674 11.3030875 46.5938108 11.7481651 50.5821907 12.2313427 51.2749185 12.3162018 51.2679912 11.2303511 50.5821907 11.145492"></path>
          <g fill-rule="nonzero" transform="translate(33.145 24.63)">
            <polygon fill="#FFD200" points=".067 9.297 8.939 9.297 8.939 .234 .067 .234"></polygon>
            <path fill="#4A4A4A" fill-opacity=".3" d="M6.14940606,3.82182778 C4.87284091,4.09878376 3.5009002,3.42381826 2.20324238,3.42840359 C1.8336621,3.42932067 1.8336621,4.00432527 2.20324238,4.00249111 C3.56417822,3.99882278 4.9434555,4.67011997 6.30255719,4.37573967 C6.66388383,4.29778848 6.51164976,3.74387659 6.14940606,3.82182778 M6.32227426,5.82251352 C4.99985547,5.7794111 3.72879276,5.41074787 2.41462763,5.73722576 C2.05605222,5.82618177 2.20828628,6.38009367 2.5668617,6.29205474 C3.81958296,5.98024998 5.06221642,6.35624979 6.32227426,6.39751805 C6.69093747,6.41035711 6.69093747,5.8353525 6.32227426,5.82251352"></path>
          </g>
        </g>
        <path fill="#7F4B24" d="M175.460547,114.129455 L19.3605142,114.129455 L19.3605142,245.552241 L11.1021145,245.552241 L11.1021145,114.129455 L0,114.129455 L0,106.387097 L195.577578,106.387097 L195.577578,114.129455 L183.718947,114.129455 L183.718947,245.552241 L175.460547,245.552241 L175.460547,114.129455 Z"></path>
        <g transform="translate(61.99 .323)">
          <polygon fill="#525062" points="47.491 207.521 49.813 220.681 43.619 222.231 39.876 210.656"></polygon>
          <path fill="#D89D5E" d="M60.649109,67.7827496 C66.3579492,67.3480344 70.0343859,64.7337057 70.0343859,64.7337057 C70.0343859,64.7337057 68.2434561,61.6484355 67.9375895,56.4278282 C67.6317228,51.2092335 70.9499735,44.9280018 70.9499735,44.9280018 L61.2306581,43.0080097 L50.1731761,44.9280018 C50.1731761,44.9280018 54.7792865,51.066341 54.4734198,56.2889609 C54.1655409,61.5095681 51.1672427,65.5246458 51.1672427,65.5246458 C51.1672427,65.5246458 52.811276,66.7664016 58.5201161,67.5895429 L60.649109,67.7827496"></path>
          <polygon fill="#525062" points="75.741 204.14 74.321 216.785 79.226 217.971 83.678 206.36"></polygon>
          <path fill="#181D30" d="M49.8214295 213.232208L45.6721068 161.446763 45.8652858 157.944891 31.8678618 157.174076 23.3458533 157.260617 38.5224738 215.711695C38.5224738 215.711695 49.7992944 212.845795 49.8214295 213.232208M72.96648 208.340254L74.0148782 160.82347 73.6486431 157.335686 87.5917355 155.868522 94.1839668 156.733927 85.6418356 211.373197C85.6418356 211.373197 72.9684922 207.95384 72.96648 208.340254"></path>
          <g transform="rotate(-25 151.286 32.986)">
            <path fill="#D89D5E" d="M41.1563904,35.3578597 C26.7050785,22.4980451 19.2682416,14.4220872 19.2682416,14.4220872 C19.2682416,14.4220872 18.7989508,7.46885667 16.3650382,4.92974365 C13.9318366,2.39063063 10.6553337,-0.0546255084 9.62218288,0.467986664 C8.58832106,0.9898878 4.50102134,3.02512686 4.53799577,3.93738729 C4.57497019,4.84822565 7.59427786,9.0196283 7.60352146,10.630127 C7.61276507,12.2406258 8.85780774,15.5768112 10.3396289,16.5409774 C11.8214501,17.5051435 13.586979,18.6200495 13.586979,18.6200495 C13.586979,18.6200495 32.2249336,45.4254322 43.3201054,53.442374"></path>
            <path fill="#F8F9FB" d="M65.6826221,33.9033463 C50.4683647,66.5304267 57.1348884,38.7319435 50.3465261,39.0220465 C46.3035149,39.1955396 21.818915,14.2023681 21.818915,14.2023681 L12.4229419,21.3379888 C12.4229419,21.3379888 32.753099,53.879164 42.4915938,60.8117745 C52.2293776,67.7443849 72.8667743,40.7537819 76.4857996,38.9409507 L65.6826221,33.9033463 Z"></path>
            <path fill="#5EB3E4" d="M67.556309,36.9838167 C52.3420515,69.610897 59.0085752,41.8124138 52.2202129,42.1025169 C48.1772017,42.2760099 24.1152201,16.3765307 24.1152201,16.3765307 L14.2966287,24.4184592 C14.2966287,24.4184592 34.6267858,56.9596344 44.3652807,63.8922448 C54.1030644,70.8248553 65.0274189,43.3681243 74.8684562,40.0431533 L67.556309,36.9838167 Z"></path>
            <polygon fill="#1D9195" points="2.124 3.888 18.198 5.913 17.814 7.928 1.622 6.073 .006 4.717"></polygon>
            <path fill="#D89D5E" d="M5.99453687,7.07561166 L4.30162353,2.42437049 C5.91229509,1.33647577 7.1809633,1.37637651 8.10762818,2.54407272 C9.03429305,3.71176893 10.432727,5.90983259 12.3029299,9.13826372 L5.99453687,7.07561166 Z" transform="rotate(-15 8.302 5.388)"></path>
          </g>
          <path fill="#5EB3E4" d="M32.6530537,69.8880993 C27.6203398,73.7582719 8.26823707,95.4336536 7.88187919,97.3697462 C7.49552131,99.3058388 5.17133719,106.273357 10.5924212,107.43461 C16.0094806,108.593851 96.3461274,108.529943 98.2799291,105.43461 C100.215743,102.337264 100.954264,85.4170609 97.7324853,82.0472401 C94.5107066,78.6774194 89.5442514,67.9520068 86.0609936,66.0159142 C82.5777359,64.0798216 70.9668767,64.4662351 67.8699768,64.8546611 C64.7730769,65.2410746 51.8119775,65.0861067 51.8119775,65.0861067 C51.8119775,65.0861067 37.6837552,66.0159142 32.6530537,69.8880993 Z"></path>
          <path fill="#D89D5E" d="M39.6203741,13.8404328 C39.4251829,14.5367821 36.7307391,24.7143499 36.7307391,24.7143499 L31.4364288,24.7143499 L35.1007918,30.0114348 C35.1007918,30.0114348 32.6699568,39.7724005 38.1011022,43.352763 C43.5342599,46.9331255 49.4342667,45.3069687 51.5531982,47.7099776 C55.6602629,52.3690778 52.8873402,62.8062671 52.8873402,62.8062671 L61.9647381,59.2742063 C61.9647381,59.2742063 60.7654189,44.6528834 61.1014697,43.5258441 C62.0170574,40.4466116 65.0877976,43.1756568 69.5832325,39.1223403 C73.9257341,35.2058786 81.0250602,27.209937 72.8612377,12.1639617 C64.6954029,-2.8820135 42.4576898,3.72122951 39.6203741,13.8404328"></path>
          <path fill="#0C101F" d="M71.7422084 223.395286C72.2513154 217.967384 71.9273382 214.211928 73.3620943 213.473314 75.5152346 212.368413 81.0550431 213.14124 81.1697431 215.811921 81.2844431 218.484614 80.1957993 224.08761 80.3547695 225.790244 80.5157519 227.494891 83.1156185 235.003791 82.6568185 236.740639 81.63458 240.600749 81.161694 243.132562 74.5815364 242.357723 66.7638262 241.437978 66.59077 237.559755 67.7820402 233.733859 69.6192524 227.824953 71.7422084 223.395286 71.7422084 223.395286M51.981009 228.908319C51.4175705 223.484443 51.7053266 219.726974 50.2625214 219.002449 48.0993197 217.919686 42.5675603 218.74484 42.4790199 221.41552 42.3904796 224.088214 43.533455 229.683159 43.3885708 231.385793 43.2436866 233.092453 41.1448779 240.561101 41.1971972 242.360339 41.303848 246.266738 43.4710743 254.387459 50.1981284 254.35727 55.8063545 254.331107 57.2672702 243.020462 56.0417913 239.206641 54.146223 233.315848 51.981009 228.908319 51.981009 228.908319"></path>
          <path fill="#FFF" d="M50.7311815,65.2020308 L51.4898113,59.3313633 C51.4898113,59.3313633 60.8428917,60.1062029 69.6808282,58.9449498 L70.5662316,64.6686996 C70.5662316,64.6686996 60.5833075,68.2993764 50.7311815,65.2020308"></path>
          <path fill="#181D30" d="M44.9754553,5.07468301 C44.9754553,5.07468301 48.0361341,3.10035159 51.5556129,2.36576344 C56.1979443,1.39771715 61.94703,0.604764468 68.1971737,1.59293646 C75.550047,2.7541895 82.548759,10.2047246 83.581059,15.6225637 C84.6113467,21.044428 83.8064344,30.6222499 76.8399189,37.9781941 C73.3848331,41.6249715 70.7125244,45.6541371 70.7125244,45.6541371 C70.7125244,45.6541371 62.621144,45.8433187 60.649109,44.3640796 C58.0693653,42.4299996 60.3271441,33.0735604 52.5859006,28.6861573 C52.5859006,28.6861573 51.4248147,26.5588705 50.0061568,30.0426296 C50.0061568,30.0426296 49.0704463,29.9440137 48.3621236,27.2371067 C47.7544148,24.912588 48.5854867,22.8295778 48.8450709,21.5274449 C49.42662,18.623306 49.5232095,16.9307344 47.9737534,13.8333888 C46.9354166,11.7523911 44.2651202,8.6550455 43.6191781,8.26863201 C43.6191781,8.26863201 41.7819659,5.80122087 44.9754553,5.07468301"></path>
          <path fill="#D89D5E" d="M49.1630112,30.1492958 C49.1630112,30.1492958 54.4593338,21.5938597 57.3107355,23.2240416 C60.1641494,24.8542235 60.9771108,28.5191139 58.9406828,30.9643868 C56.9042548,33.4096597 48.7565306,33.4096597 48.7565306,33.4096597 L49.1630112,30.1492958 Z"></path>
          <path fill="#181D30" d="M39.7010665 24.9566633L39.7996683 24.9707513C40.1477928 25.0210656 40.4737823 24.7775446 40.5240893 24.4293699L40.7494647 22.8877411C40.7997718 22.5395664 40.5562858 22.2115175 40.206149 22.1612032L40.1095595 22.1471152C39.7594227 22.096801 39.4334332 22.340322 39.3831262 22.6884966L39.1577508 24.232138C39.109456 24.5803127 39.352942 24.9063491 39.7010665 24.9566633M46.6202935 7.09107715C46.6202935 7.09107715 43.5877866 6.70466366 41.9095445 5.28580163 41.9095445 5.28580163 41.2495165 4.59146489 41.3944007 5.67221512 41.4648305 6.19950853 42.0403428 7.73509963 44.1673234 8.4475495"></path>
          <path fill="#181D30" d="M46.5927252 6.81394623C46.5927252 6.81394623 44.1538411 4.97244444 43.4032604 2.90754736 43.4032604 2.90754736 42.9062271 2.47484475 42.7633552 2.98805017 42.618471 3.50125558 42.2965061 5.09923637 43.7916306 6.77168225M75.6273186 5.34195234C75.6273186 5.34195234 74.1342064 2.67730932 74.275066.483607739 74.275066.483607739 73.9933468-.112113057 73.6572959.298451275 73.3192327.709015608 72.3835223 2.04536226 73.0797714 4.1806993"></path>
          <path fill="#181D30" d="M75.3482153,6.60967034 C75.3482153,6.60967034 76.4569819,3.76188343 78.2398626,2.47786361 C78.2398626,2.47786361 78.5215818,1.88415538 77.9883275,1.88415538 C77.4590977,1.88415538 75.8311626,2.01094731 74.6278188,3.90276335"></path>
        </g>
        <g transform="translate(75.966 80.065)">
          <path stroke="#1A1D30" stroke-width="1.4" d="M81.7068717 80.4284555L92.8106362 171.221538M11.8253964 80.4284555L.721631948 171.221538"></path>
          <path fill="#D2C1AD" d="M76.4934551,3.05639955 C72.1771132,-0.0188078064 49.8226877,0.798295718 46.2911352,0.947225917 C42.761595,0.798295718 20.4071696,-0.0188078064 16.0908277,3.05639955 C11.4042261,6.39927874 2.02699839,87.459571 3.30680886,92.0562815 C4.46990706,96.2384025 39.5037127,96.9589026 45.8061756,97.055506 L45.8061756,97.069594 C45.8061756,97.069594 45.9772195,97.0675814 46.2911352,97.0635563 C46.6070633,97.0675814 46.7781071,97.069594 46.7781071,97.069594 L46.7781071,97.055506 C53.0805701,96.9589026 88.1143757,96.2384025 89.2794862,92.0562815 C90.5572844,87.459571 81.1800567,6.39927874 76.4934551,3.05639955"></path>
        </g>
      </g>
    </g>
    <g stroke="#4EBABC" stroke-width="2.5" transform="translate(149 181)">
      <path stroke-dasharray="6" d="M6.70741305,39.625317 C20.8976093,13.4797332 46.2950842,0.407681293 82.8998377,0.409161372"></path>
      <polyline stroke-linecap="square" points="5.811 38.345 3.149 42.951 7.734 47.157" transform="rotate(-61 5.441 42.751)"></polyline>
    </g>
    <g stroke="#4EBABC" stroke-width="2.5" transform="matrix(-1 0 0 1 320.425 181)">
      <path stroke-dasharray="6" d="M6.70741305,39.625317 C20.8976093,13.4797332 46.2950842,0.407681293 82.8998377,0.409161372"></path>
      <polyline stroke-linecap="square" points="5.811 38.345 3.149 42.951 7.734 47.157" transform="rotate(-61 5.441 42.751)"></polyline>
    </g>
  </g>
</svg>
