<?xml version="1.0" standalone="no"?><!DOCTYPE svg PUBLIC "-//W3C//DTD SVG 1.1//EN" "http://www.w3.org/Graphics/SVG/1.1/DTD/svg11.dtd"><svg class="icon" height="512" viewBox="0 0 1024 1024" version="1.1" xmlns="http://www.w3.org/2000/svg"><path d="M512 15.616C238.064 15.616 16 237.664 16 511.568c0 273.92 222.064 495.984 496 495.984s496-222.064 496-495.984C1008 237.664 785.936 15.616 512 15.616z m30.416 765.648c-9.92 9.136-21.376 13.696-34.384 13.696a50.88 50.88 0 0 1-35.216-13.552c-10.032-9.024-15.04-21.664-15.04-37.92 0-14.4 4.848-26.528 14.544-36.368 9.712-9.824 21.632-14.768 35.712-14.768 13.888 0 25.584 4.944 35.04 14.768 9.488 9.84 14.224 21.968 14.224 36.368 0 16.032-4.96 28.608-14.88 37.776z m123.504-317.792c-7.616 14.64-16.64 27.264-27.104 37.904s-29.28 28.528-56.384 53.712c-7.488 7.072-13.504 13.328-18.016 18.704a76 76 0 0 0-10.096 14.736 72.16 72.16 0 0 0-5.104 13.392 594.08 594.08 0 0 0-5.456 23.536c-4.192 23.776-17.312 35.68-39.36 35.68-11.456 0-21.12-3.904-28.928-11.664-7.824-7.76-11.744-19.344-11.744-34.672 0-19.232 2.864-35.84 8.592-49.92a127.84 127.84 0 0 1 22.832-37.072c9.472-10.624 22.272-23.28 38.352-37.904 14.096-12.832 24.32-22.496 30.576-29.008 6.272-6.496 11.616-13.824 15.856-21.776a54.304 54.304 0 0 0 6.448-26.096c0-18.32-6.56-33.728-19.664-46.336-13.104-12.56-30.032-18.88-50.752-18.88-24.256 0-42.112 6.352-53.568 19.024-11.456 12.704-21.168 31.408-29.088 56.128-7.504 25.856-21.696 38.784-42.656 38.784a41.088 41.088 0 0 1-31.248-13.552c-8.48-9.024-12.736-18.832-12.736-29.344 0-21.744 6.72-43.76 20.176-66.064 13.424-22.32 33.056-40.784 58.848-55.424s55.888-21.968 90.272-21.968c31.952 0 60.208 6.128 84.672 18.336 24.448 12.256 43.36 28.912 56.704 49.968a125.664 125.664 0 0 1 20.016 68.624c-0.016 19.44-3.824 36.496-11.44 51.152z" fill="#2299FF" /></svg>